<svg width="600" height="400" viewBox="0 0 600 400" xmlns="http://www.w3.org/2000/svg" style="
    'a'c'backdrop-filter: back';
    background-color: #000;
    display: block;
"><path fill="black" d="M1.5 16.5L1.5 16.5Q1.3 16.5 1.2 16.4Q1.0 16.3 1.0 16.1L1.0 16.1L1.0 4.7Q1.0 4.5 1.2 4.4Q1.3 4.3 1.5 4.3L1.5 4.3Q1.7 4.3 1.9 4.4Q2.0 4.5 2.0 4.7L2.0 4.7L2.0 10.1Q2.3 9.6 2.8 9.2Q3.4 8.9 4.2 8.9L4.2 8.9Q4.9 8.9 5.6 9.3Q6.2 9.7 6.6 10.3Q7.0 11.0 7.0 11.8L7.0 11.8L7.0 16.1Q7.0 16.3 6.8 16.4Q6.7 16.5 6.5 16.5L6.5 16.5Q6.3 16.5 6.1 16.4Q6.0 16.3 6.0 16.1L6.0 16.1L6.0 11.8Q6.0 11.3 5.7 10.9Q5.4 10.4 5.0 10.1Q4.5 9.8 4.0 9.8L4.0 9.8Q3.5 9.8 3.0 10.1Q2.6 10.3 2.3 10.8Q2.0 11.2 2.0 11.8L2.0 11.8L2.0 16.1Q2.0 16.3 1.9 16.4Q1.7 16.5 1.5 16.5ZM12.1 16.6L12.1 16.6Q11.1 16.6 10.3 16.2Q9.5 15.9 9.1 15.2Q8.6 14.5 8.6 13.6L8.6 13.6L8.6 11.8Q8.6 11.0 9.1 10.3Q9.5 9.7 10.2 9.3Q10.9 8.9 11.7 8.9L11.7 8.9Q12.5 8.9 13.2 9.2Q13.9 9.6 14.3 10.3Q14.7 10.9 14.7 11.8L14.7 11.8Q14.7 12.4 14.5 12.7Q14.3 12.9 14.0 13.0Q13.6 13.0 13.3 13.0L13.3 13.0L9.7 13.0L9.7 13.6Q9.7 14.6 10.4 15.2Q11.1 15.7 12.1 15.7L12.1 15.7Q12.8 15.7 13.1 15.6Q13.5 15.4 13.7 15.2Q13.9 15.1 14.0 15.1L14.0 15.1Q14.2 15.1 14.3 15.2Q14.4 15.3 14.4 15.4Q14.5 15.5 14.5 15.6L14.5 15.6Q14.5 15.8 14.2 16.0Q13.9 16.3 13.4 16.4Q12.8 16.6 12.1 16.6ZM9.7 11.7L9.7 12.3L12.9 12.3Q13.4 12.3 13.5 12.2Q13.7 12.1 13.7 11.7L13.7 11.7Q13.7 11.2 13.4 10.8Q13.2 10.3 12.7 10.0Q12.3 9.7 11.7 9.7L11.7 9.7Q11.1 9.7 10.7 10.0Q10.2 10.2 10.0 10.7Q9.7 11.1 9.7 11.7L9.7 11.7ZM16.9 16.5L16.9 16.5Q16.7 16.5 16.5 16.4Q16.4 16.3 16.4 16.1L16.4 16.1L16.4 4.7Q16.4 4.5 16.5 4.4Q16.7 4.3 16.9 4.3L16.9 4.3Q17.1 4.3 17.3 4.4Q17.4 4.5 17.4 4.7L17.4 4.7L17.4 16.1Q17.4 16.3 17.3 16.4Q17.1 16.5 16.9 16.5ZM20.2 16.5L20.2 16.5Q20.0 16.5 19.9 16.4Q19.7 16.3 19.7 16.1L19.7 16.1L19.7 4.7Q19.7 4.5 19.9 4.4Q20.0 4.3 20.2 4.3L20.2 4.3Q20.4 4.3 20.6 4.4Q20.8 4.5 20.8 4.7L20.8 4.7L20.8 16.1Q20.8 16.3 20.6 16.4Q20.4 16.5 20.2 16.5ZM25.6 16.6L25.6 16.6Q24.8 16.6 24.1 16.2Q23.5 15.8 23.0 15.1Q22.6 14.4 22.6 13.6L22.6 13.6L22.6 11.8Q22.6 11.0 23.0 10.4Q23.4 9.7 24.1 9.3Q24.8 8.9 25.6 8.9L25.6 8.9Q26.5 8.9 27.2 9.3Q27.9 9.7 28.3 10.3Q28.7 11.0 28.7 11.8L28.7 11.8L28.7 13.6Q28.7 14.4 28.3 15.1Q27.9 15.8 27.2 16.2Q26.5 16.6 25.6 16.6ZM25.6 15.7L25.6 15.7Q26.2 15.7 26.7 15.4Q27.1 15.1 27.4 14.6Q27.6 14.1 27.6 13.6L27.6 13.6L27.6 11.8Q27.6 11.3 27.4 10.9Q27.1 10.4 26.7 10.1Q26.2 9.8 25.6 9.8L25.6 9.8Q25.1 9.8 24.6 10.1Q24.2 10.4 23.9 10.9Q23.6 11.3 23.6 11.8L23.6 11.8L23.6 13.6Q23.6 14.1 23.9 14.6Q24.2 15.1 24.6 15.4Q25.1 15.7 25.6 15.7ZM30.6 17.9L30.6 17.9Q30.4 17.9 30.3 17.8Q30.2 17.7 30.2 17.6L30.2 17.6Q30.2 17.5 30.2 17.4L30.2 17.4L30.5 16.6Q30.3 16.5 30.2 16.3Q30.0 16.1 30.0 15.9L30.0 15.9Q30.0 15.6 30.3 15.3Q30.5 15.1 30.8 15.1L30.8 15.1Q31.1 15.1 31.3 15.3Q31.5 15.5 31.5 15.9L31.5 15.9Q31.5 15.9 31.5 16.0Q31.5 16.1 31.4 16.3Q31.4 16.4 31.2 16.8Q31.1 17.1 30.9 17.7L30.9 17.7Q30.8 17.8 30.8 17.8Q30.7 17.9 30.6 17.9Z M38.6 16.6L38.6 16.6Q38.4 16.6 38.3 16.6Q38.2 16.5 38.1 16.3L38.1 16.3L35.6 9.6Q35.6 9.6 35.6 9.5Q35.6 9.4 35.6 9.4L35.6 9.4Q35.6 9.3 35.7 9.2Q35.8 9.0 35.9 9.0Q36.1 8.9 36.2 8.9L36.2 8.9Q36.3 8.9 36.4 9.0Q36.5 9.0 36.6 9.2L36.6 9.2L38.6 14.9L40.3 9.7Q40.3 9.5 40.4 9.4Q40.5 9.4 40.7 9.4L40.7 9.4Q40.8 9.4 40.9 9.4Q41.1 9.5 41.1 9.7L41.1 9.7L42.7 14.9L44.8 9.2Q44.8 8.9 45.1 8.9L45.1 8.9Q45.3 8.9 45.4 9.0Q45.6 9.0 45.7 9.1Q45.8 9.2 45.8 9.4L45.8 9.4Q45.8 9.4 45.7 9.5Q45.7 9.6 45.7 9.6L45.7 9.6L43.2 16.4Q43.2 16.5 43.0 16.6Q42.9 16.6 42.8 16.6L42.8 16.6Q42.6 16.6 42.5 16.6Q42.4 16.5 42.4 16.4L42.4 16.4L40.7 11.2L39.0 16.3Q39.0 16.5 38.9 16.6Q38.7 16.6 38.6 16.6ZM49.7 16.6L49.7 16.6Q48.9 16.6 48.2 16.2Q47.5 15.8 47.1 15.1Q46.7 14.4 46.7 13.6L46.7 13.6L46.7 11.8Q46.7 11.0 47.1 10.4Q47.5 9.7 48.2 9.3Q48.9 8.9 49.7 8.9L49.7 8.9Q50.5 8.9 51.2 9.3Q51.9 9.7 52.4 10.3Q52.8 11.0 52.8 11.8L52.8 11.8L52.8 13.6Q52.8 14.4 52.4 15.1Q51.9 15.8 51.2 16.2Q50.5 16.6 49.7 16.6ZM49.7 15.7L49.7 15.7Q50.3 15.7 50.7 15.4Q51.2 15.1 51.5 14.6Q51.7 14.1 51.7 13.6L51.7 13.6L51.7 11.8Q51.7 11.3 51.5 10.9Q51.2 10.4 50.7 10.1Q50.3 9.8 49.7 9.8L49.7 9.8Q49.2 9.8 48.7 10.1Q48.3 10.4 48 10.9Q47.7 11.3 47.7 11.8L47.7 11.8L47.7 13.6Q47.7 14.1 48 14.6Q48.3 15.1 48.7 15.4Q49.2 15.7 49.7 15.7ZM55.0 16.5L55.0 16.5Q54.8 16.5 54.6 16.4Q54.5 16.3 54.5 16.1L54.5 16.1L54.5 9.3Q54.5 9.2 54.6 9.1Q54.8 9.0 55.0 9.0L55.0 9.0Q55.2 9.0 55.3 9.1Q55.5 9.2 55.5 9.3L55.5 9.3L55.5 10.1Q55.7 9.8 56.0 9.5Q56.3 9.2 56.7 9.0Q57.1 8.9 57.6 8.9L57.6 8.9L58.2 8.9Q58.4 8.9 58.5 9.0Q58.6 9.1 58.6 9.3L58.6 9.3Q58.6 9.5 58.5 9.7Q58.4 9.8 58.2 9.8L58.2 9.8L57.6 9.8Q57.1 9.8 56.6 10.1Q56.1 10.4 55.8 10.9Q55.5 11.4 55.5 12.2L55.5 12.2L55.5 16.1Q55.5 16.3 55.4 16.4Q55.2 16.5 55.0 16.5ZM60.4 16.5L60.4 16.5Q60.2 16.5 60.1 16.4Q59.9 16.3 59.9 16.1L59.9 16.1L59.9 4.7Q59.9 4.5 60.1 4.4Q60.2 4.3 60.4 4.3L60.4 4.3Q60.6 4.3 60.8 4.4Q60.9 4.5 60.9 4.7L60.9 4.7L60.9 16.1Q60.9 16.3 60.8 16.4Q60.6 16.5 60.4 16.5ZM65.6 16.6L65.6 16.6Q64.9 16.6 64.2 16.2Q63.6 15.8 63.2 15.1Q62.8 14.4 62.8 13.6L62.8 13.6L62.8 11.8Q62.8 11.0 63.2 10.3Q63.6 9.7 64.2 9.3Q64.9 8.9 65.7 8.9L65.7 8.9Q66.5 8.9 67 9.2Q67.5 9.6 67.8 10.1L67.8 10.1L67.8 4.7Q67.8 4.5 68.0 4.4Q68.1 4.3 68.3 4.3L68.3 4.3Q68.6 4.3 68.7 4.4Q68.8 4.5 68.8 4.7L68.8 4.7L68.8 16.1Q68.8 16.3 68.7 16.4Q68.6 16.5 68.3 16.5L68.3 16.5Q68.1 16.5 68.0 16.4Q67.8 16.3 67.8 16.1L67.8 16.1L67.8 15.4Q67.6 15.9 67.0 16.3Q66.4 16.6 65.6 16.6ZM65.8 15.7L65.8 15.7Q66.4 15.7 66.8 15.4Q67.3 15.1 67.5 14.7Q67.8 14.3 67.8 14.1L67.8 14.1L67.8 11.8Q67.8 11.2 67.5 10.8Q67.2 10.3 66.8 10.1Q66.3 9.8 65.8 9.8L65.8 9.8Q65.3 9.8 64.8 10.1Q64.4 10.4 64.1 10.9Q63.9 11.3 63.9 11.8L63.9 11.8L63.9 13.6Q63.9 14.1 64.1 14.6Q64.4 15.1 64.8 15.4Q65.3 15.7 65.8 15.7Z "></path></svg>
